<svg width="161" height="54" viewBox="0 0 161 54" fill="none" xmlns="http://www.w3.org/2000/svg">
<rect x="3.5" y="3.5" width="154" height="47" stroke="#18A0FB" stroke-opacity="0.6"/>
<path d="M28.06 36.182C26.7947 36.182 25.6507 35.9653 24.628 35.532C23.6227 35.0987 22.8253 34.4747 22.236 33.66C21.6467 32.8453 21.3433 31.8833 21.326 30.774H25.226C25.278 31.5193 25.538 32.1087 26.006 32.542C26.4913 32.9753 27.15 33.192 27.982 33.192C28.8313 33.192 29.4987 32.9927 29.984 32.594C30.4693 32.178 30.712 31.6407 30.712 30.982C30.712 30.4447 30.5473 30.0027 30.218 29.656C29.8887 29.3093 29.4727 29.0407 28.97 28.85C28.4847 28.642 27.8087 28.4167 26.942 28.174C25.7633 27.8273 24.8013 27.4893 24.056 27.16C23.328 26.8133 22.6953 26.302 22.158 25.626C21.638 24.9327 21.378 24.014 21.378 22.87C21.378 21.7953 21.6467 20.8593 22.184 20.062C22.7213 19.2647 23.4753 18.658 24.446 18.242C25.4167 17.8087 26.526 17.592 27.774 17.592C29.646 17.592 31.1627 18.0513 32.324 18.97C33.5027 19.8713 34.1527 21.1367 34.274 22.766H30.27C30.2353 22.142 29.9667 21.6307 29.464 21.232C28.9787 20.816 28.3287 20.608 27.514 20.608C26.8033 20.608 26.2313 20.79 25.798 21.154C25.382 21.518 25.174 22.0467 25.174 22.74C25.174 23.2253 25.33 23.6327 25.642 23.962C25.9713 24.274 26.37 24.534 26.838 24.742C27.3233 24.9327 27.9993 25.158 28.866 25.418C30.0447 25.7647 31.0067 26.1113 31.752 26.458C32.4973 26.8047 33.1387 27.3247 33.676 28.018C34.2133 28.7113 34.482 29.6213 34.482 30.748C34.482 31.7187 34.2307 32.62 33.728 33.452C33.2253 34.284 32.4887 34.9513 31.518 35.454C30.5473 35.9393 29.3947 36.182 28.06 36.182ZM55.7858 21.388C57.5538 21.388 58.9751 21.934 60.0498 23.026C61.1418 24.1007 61.6878 25.6087 61.6878 27.55V36H58.0478V28.044C58.0478 26.9173 57.7618 26.0593 57.1898 25.47C56.6178 24.8633 55.8378 24.56 54.8498 24.56C53.8618 24.56 53.0731 24.8633 52.4838 25.47C51.9118 26.0593 51.6258 26.9173 51.6258 28.044V36H47.9858V28.044C47.9858 26.9173 47.6998 26.0593 47.1278 25.47C46.5558 24.8633 45.7758 24.56 44.7878 24.56C43.7824 24.56 42.9851 24.8633 42.3958 25.47C41.8238 26.0593 41.5378 26.9173 41.5378 28.044V36H37.8978V21.596H41.5378V23.338C42.0058 22.7313 42.6038 22.2547 43.3318 21.908C44.0771 21.5613 44.8918 21.388 45.7758 21.388C46.9024 21.388 47.9078 21.6307 48.7918 22.116C49.6758 22.584 50.3604 23.26 50.8458 24.144C51.3138 23.312 51.9898 22.6447 52.8738 22.142C53.7751 21.6393 54.7458 21.388 55.7858 21.388ZM73.9299 36L69.0419 29.864V36H65.4019V16.76H69.0419V27.706L73.8779 21.596H78.6099L72.2659 28.824L78.6619 36H73.9299ZM91.1415 26.692C92.1642 26.8827 93.0048 27.394 93.6635 28.226C94.3222 29.058 94.6515 30.0113 94.6515 31.086C94.6515 32.0567 94.4088 32.9147 93.9235 33.66C93.4555 34.388 92.7708 34.96 91.8695 35.376C90.9682 35.792 89.9022 36 88.6715 36H80.8455V17.852H88.3335C89.5642 17.852 90.6215 18.0513 91.5055 18.45C92.4068 18.8487 93.0828 19.4033 93.5335 20.114C94.0015 20.8247 94.2355 21.6307 94.2355 22.532C94.2355 23.5893 93.9495 24.4733 93.3775 25.184C92.8228 25.8947 92.0775 26.3973 91.1415 26.692ZM84.4855 25.34H87.8135C88.6802 25.34 89.3475 25.1493 89.8155 24.768C90.2835 24.3693 90.5175 23.806 90.5175 23.078C90.5175 22.35 90.2835 21.7867 89.8155 21.388C89.3475 20.9893 88.6802 20.79 87.8135 20.79H84.4855V25.34ZM88.1515 33.036C89.0355 33.036 89.7202 32.828 90.2055 32.412C90.7082 31.996 90.9595 31.4067 90.9595 30.644C90.9595 29.864 90.6995 29.2573 90.1795 28.824C89.6595 28.3733 88.9575 28.148 88.0735 28.148H84.4855V33.036H88.1515ZM115.701 21.388C117.469 21.388 118.89 21.934 119.965 23.026C121.057 24.1007 121.603 25.6087 121.603 27.55V36H117.963V28.044C117.963 26.9173 117.677 26.0593 117.105 25.47C116.533 24.8633 115.753 24.56 114.765 24.56C113.777 24.56 112.988 24.8633 112.399 25.47C111.827 26.0593 111.541 26.9173 111.541 28.044V36H107.901V28.044C107.901 26.9173 107.615 26.0593 107.043 25.47C106.471 24.8633 105.691 24.56 104.703 24.56C103.697 24.56 102.9 24.8633 102.311 25.47C101.739 26.0593 101.453 26.9173 101.453 28.044V36H97.8125V21.596H101.453V23.338C101.921 22.7313 102.519 22.2547 103.247 21.908C103.992 21.5613 104.807 21.388 105.691 21.388C106.817 21.388 107.823 21.6307 108.707 22.116C109.591 22.584 110.275 23.26 110.761 24.144C111.229 23.312 111.905 22.6447 112.789 22.142C113.69 21.6393 114.661 21.388 115.701 21.388ZM124.953 22.038C125.039 20.3047 125.646 18.97 126.773 18.034C127.917 17.0807 129.416 16.604 131.271 16.604C132.536 16.604 133.619 16.8293 134.521 17.28C135.422 17.7133 136.098 18.3113 136.549 19.074C137.017 19.8193 137.251 20.6687 137.251 21.622C137.251 22.714 136.965 23.6413 136.393 24.404C135.838 25.1493 135.171 25.652 134.391 25.912V26.016C135.396 26.328 136.176 26.8827 136.731 27.68C137.303 28.4773 137.589 29.5 137.589 30.748C137.589 31.788 137.346 32.7153 136.861 33.53C136.393 34.3447 135.691 34.986 134.755 35.454C133.836 35.9047 132.727 36.13 131.427 36.13C129.468 36.13 127.873 35.636 126.643 34.648C125.412 33.66 124.762 32.204 124.693 30.28H128.229C128.263 31.1293 128.549 31.814 129.087 32.334C129.641 32.8367 130.395 33.088 131.349 33.088C132.233 33.088 132.909 32.8453 133.377 32.36C133.862 31.8573 134.105 31.216 134.105 30.436C134.105 29.396 133.775 28.6507 133.117 28.2C132.458 27.7493 131.435 27.524 130.049 27.524H129.295V24.534H130.049C132.51 24.534 133.741 23.7107 133.741 22.064C133.741 21.3187 133.515 20.738 133.065 20.322C132.631 19.906 131.999 19.698 131.167 19.698C130.352 19.698 129.719 19.9233 129.269 20.374C128.835 20.8073 128.584 21.362 128.515 22.038H124.953Z" fill="#2081E2" fill-opacity="0.85"/>
<rect x="155" y="0.5" width="5.5" height="5.5" fill="#FDFDFD"/>
<rect x="155.5" y="1" width="4.5" height="4.5" stroke="#18A0FB" stroke-opacity="0.7"/>
<rect x="155" y="48" width="5.5" height="5.5" fill="#FDFDFD"/>
<rect x="155.5" y="48.5" width="4.5" height="4.5" stroke="#18A0FB" stroke-opacity="0.7"/>
<rect x="0.5" y="48" width="5.5" height="5.5" fill="#FDFDFD"/>
<rect x="1" y="48.5" width="4.5" height="4.5" stroke="#18A0FB" stroke-opacity="0.7"/>
<rect x="0.5" y="0.5" width="5.5" height="5.5" fill="#FDFDFD"/>
<rect x="1" y="1" width="4.5" height="4.5" stroke="#18A0FB" stroke-opacity="0.7"/>
</svg>
